<?xml version="1.0" encoding="UTF-8"?>
<svg width="812px" height="123px" viewBox="0 0 812 123" version="1.1" xmlns="http://www.w3.org/2000/svg" xmlns:xlink="http://www.w3.org/1999/xlink">
    <!-- Generator: Sketch 53.1 (72631) - https://sketchapp.com -->
    <title>primary logo - colored</title>
    <desc>Created with Sketch.</desc>
    <defs>
        <path d="M95.2238576,26.7728357 L60.3656169,61.4204569 C54.9052002,66.8478808 46.0870497,66.8478577 40.6266614,61.4204054 L5.74312293,26.7472768 C2.25709553,24.0407972 0,19.7166052 0,14.8440984 C0,6.64592925 6.38967526,0 14.2717391,0 C18.7476793,0 22.7423696,2.14310947 25.3590248,5.49657807 L42.5560658,23.3846444 C42.6586896,23.4913919 42.7634583,23.5960563 42.8703081,23.6985736 C47.2540289,27.9045484 54.2173531,27.7604567 58.4233278,23.3767358 C66.4029835,15.0598567 72.1620048,9.07459094 75.7003915,5.42093834 C76.5175728,4.38755204 77.4664024,3.47104052 78.5202039,2.69914983 C78.6852919,2.56502064 78.8597167,2.42653985 79.0434783,2.28370745 C79.0553267,2.29260435 79.0677677,2.30095331 79.0807952,2.30876841 C81.2912969,0.846814904 83.9146998,0 86.7282609,0 C94.6103247,0 101,6.64592925 101,14.8440984 C101,19.7319722 98.7286451,24.0680672 95.2238576,26.7728357 Z" id="path-1"></path>
        <path d="M95.2238576,26.7157507 L62.467636,59.2046329 C55.8401466,65.7780322 45.1521082,65.7780043 38.5246531,59.2045703 L5.74312293,26.6902463 C2.25709553,23.9895375 0,19.6745656 0,14.8124479 C0,6.63175882 6.38967526,2.84217094e-14 14.2717391,2.84217094e-14 C18.7476793,2.84217094e-14 22.7423696,2.13853994 25.3590248,5.48485828 L42.5642084,23.3432355 C42.6615214,23.444243 42.7607573,23.54338 42.8618618,23.6405921 C47.2410997,27.8512377 54.2045761,27.7145667 58.4152186,23.3353259 C66.3990819,15.0317924 72.1608063,9.05647703 75.7003915,5.40937983 C76.5175728,4.37819692 77.4664024,3.46363958 78.5202039,2.69339472 C78.6852919,2.55955152 78.8597167,2.42136599 79.0434783,2.27883814 C79.0553267,2.28771606 79.0677677,2.29604723 79.0807952,2.30384566 C81.2912969,0.845009329 83.9146998,2.84217094e-14 86.7282609,2.84217094e-14 C94.6103247,2.84217094e-14 101,6.63175882 101,14.8124479 C101,19.6898998 98.7286451,24.0167493 95.2238576,26.7157507 Z" id="path-3"></path>
    </defs>
    <g id="Page-1" stroke="none" stroke-width="1" fill="none" fill-rule="evenodd">
        <g id="Logo-design---v-0.00000002" transform="translate(-81.000000, -807.000000)">
            <g id="primary-logo---colored" transform="translate(67.000000, 803.000000)">
                <path d="M171.080879,25.8706023 L171.080879,123.790602 L146.744879,123.790602 L146.744879,25.8706023 L171.080879,25.8706023 Z M224.564879,51.7906023 C242.276879,51.7906023 254.372879,64.0306023 254.372879,83.9026023 L254.372879,123.790602 L230.900879,123.790602 L230.900879,87.6466023 C230.900879,77.7106023 225.860879,72.9586023 218.228879,72.9586023 C213.908879,72.9586023 209.300879,75.4066023 205.268879,80.0146023 L205.268879,123.790602 L181.940879,123.790602 L181.940879,53.9506023 L205.268879,53.9506023 L205.268879,58.7026023 C210.884879,54.2386023 217.076879,51.7906023 224.564879,51.7906023 Z M258.752879,99.7426023 L279.488879,99.8866023 C280.496879,105.934602 285.536879,108.670602 292.880879,108.670602 C299.072879,108.670602 302.816879,106.798602 302.816879,103.774602 C302.816879,101.470602 300.656879,99.5986023 296.048879,98.8786023 L281.936879,96.4306023 C269.840879,94.4146023 261.488879,87.6466023 261.488879,75.4066023 C261.488879,60.7186023 274.016879,52.0786023 292.592879,52.0786023 C307.424879,52.0786023 324.272879,57.8386023 325.280879,76.2706023 L304.544879,76.2706023 C304.112879,70.9426023 299.216879,68.4946023 292.736879,68.4946023 C286.688879,68.4946023 283.952879,70.7986023 283.952879,73.5346023 C283.952879,75.8386023 285.680879,77.9986023 291.152879,79.0066023 L304.256879,81.1666023 C317.360879,83.6146023 326.000879,89.9506023 326.000879,102.334602 C326.000879,118.462602 311.456879,125.950602 293.312879,125.950602 C275.024879,125.950602 260.192879,118.318602 258.752879,99.7426023 Z M386.25288,102.766602 L388.84488,122.494602 C379.77288,125.374602 374.58888,125.950602 367.67688,125.950602 C350.82888,125.950602 339.59688,113.566602 339.59688,94.7026023 L339.59688,73.9666023 L339.59688,53.9506023 L339.59688,30.1906023 L362.92488,30.1906023 L362.92488,53.9506023 L386.68488,53.9506023 L386.68488,73.9666023 L362.92488,73.9666023 L362.92488,93.9826023 C362.92488,101.038602 366.95688,104.494602 373.86888,104.494602 C377.18088,104.494602 381.06888,103.774602 386.25288,102.766602 Z M466.52088,53.9506023 L466.52088,123.790602 L443.19288,123.790602 L443.19288,119.902602 C438.00888,123.214602 431.67288,125.230602 424.04088,125.230602 C405.17688,125.230602 389.33688,109.534602 389.33688,88.7986023 C389.33688,67.9186023 405.17688,52.3666023 424.04088,52.3666023 C431.67288,52.3666023 438.00888,54.3826023 443.19288,57.6946023 L443.19288,53.9506023 L466.52088,53.9506023 Z M428.64888,106.078602 C433.83288,106.078602 438.87288,104.638602 443.19288,99.5986023 L443.19288,77.9986023 C438.87288,72.9586023 433.83288,71.3746023 428.64888,71.3746023 C419.14488,71.3746023 412.23288,79.1506023 412.23288,88.7986023 C412.23288,98.4466023 419.14488,106.078602 428.64888,106.078602 Z M499.98888,21.5506023 L499.98888,123.790602 L476.66088,123.790602 L476.66088,21.5506023 L499.98888,21.5506023 Z M533.60088,21.5506023 L533.60088,123.790602 L510.27288,123.790602 L510.27288,21.5506023 L533.60088,21.5506023 Z M613.14888,87.3586023 C613.14888,89.9506023 613.14888,92.6866023 612.71688,95.2786023 L612.86088,95.7106023 L563.03688,95.7106023 C564.90888,102.046602 569.80488,106.942602 578.73288,106.942602 C583.62888,106.942602 587.37288,105.070602 589.38888,101.902602 L612.42888,101.902602 C609.11688,116.302602 595.72488,125.374602 578.44488,125.374602 C555.54888,125.374602 540.28488,110.110602 540.28488,88.7986023 C540.28488,67.6306023 555.11688,52.3666023 577.43688,52.3666023 C597.74088,52.3666023 613.14888,66.3346023 613.14888,87.3586023 Z M577.43688,70.3666023 C569.51688,70.3666023 564.47688,74.9746023 562.74888,82.0306023 L591.26088,82.0306023 C589.96488,74.3986023 584.92488,70.3666023 577.43688,70.3666023 Z M666.344881,52.7986023 L666.344881,74.9746023 C654.968881,75.4066023 647.768881,78.4306023 642.296881,83.9026023 L642.296881,123.790602 L618.968881,123.790602 L618.968881,53.9506023 L642.296881,53.9506023 L642.296881,61.4386023 C648.488881,56.1106023 655.976881,52.7986023 666.344881,52.7986023 Z M673.748881,126.382602 C666.548881,126.382602 660.644881,120.910602 660.644881,113.710602 C660.644881,106.654602 666.548881,101.182602 673.748881,101.182602 C680.948881,101.182602 686.852881,106.654602 686.852881,113.710602 C686.852881,120.910602 680.948881,126.382602 673.748881,126.382602 Z M746.240881,102.766602 L748.832881,122.494602 C739.760881,125.374602 734.576881,125.950602 727.664881,125.950602 C710.816881,125.950602 699.584881,113.566602 699.584881,94.7026023 L699.584881,73.9666023 L685.904881,73.9666023 L685.904881,53.9506023 L699.584881,53.9506023 L699.584881,30.1906023 L722.912881,30.1906023 L722.912881,53.9506023 L746.672881,53.9506023 L746.672881,73.9666023 L722.912881,73.9666023 L722.912881,93.9826023 C722.912881,101.038602 726.944881,104.494602 733.856881,104.494602 C737.168881,104.494602 741.056881,103.774602 746.240881,102.766602 Z M787.196881,52.3666023 C809.228881,52.3666023 825.068881,67.7746023 825.068881,88.7986023 C825.068881,110.110602 809.228881,125.950602 787.196881,125.950602 C765.164881,125.950602 749.324881,110.110602 749.324881,88.7986023 C749.324881,67.7746023 765.164881,52.3666023 787.196881,52.3666023 Z M787.340881,105.790602 C796.700881,105.790602 803.036881,98.3026023 803.036881,88.9426023 C803.036881,79.8706023 796.700881,72.5266023 787.340881,72.5266023 C777.836881,72.5266023 771.500881,79.8706023 771.500881,88.9426023 C771.500881,98.3026023 777.836881,105.790602 787.340881,105.790602 Z" id="Installer.to-Copy-2" fill="#1C1C1C" fill-rule="nonzero"></path>
                <g id="logo-symbol-copy-4" transform="translate(64.500000, 68.500000) rotate(15.000000) translate(-64.500000, -68.500000) translate(13.000000, 12.000000)">
                    <g id="Path-2-Copy" transform="translate(0.997614, 0.794589)">
                        <mask id="mask-2" fill="white">
                            <use xlink:href="#path-1"></use>
                        </mask>
                        <use id="Mask" fill="#007EE1" fill-rule="nonzero" xlink:href="#path-1"></use>
                        <path d="M45.7648876,65.3087651 C49.6334176,52.9671449 55.7498772,42.4185914 64.1142665,33.6631047 C72.4786557,24.9076179 85.3911816,16.5883979 102.851844,8.70544464 C105.047496,13.9253474 103.845115,20.8241732 99.2447013,29.401922 C90.3280404,46.0275726 72.6078625,61.8373146 53.4496702,68.7343263 C51.6937715,69.3664555 49.1321773,68.2246018 45.7648876,65.3087651 Z" fill-opacity="0.079908288" fill="#000000" fill-rule="nonzero" mask="url(#mask-2)"></path>
                    </g>
                    <g id="Path-2" transform="translate(1.889878, 47.125297)">
                        <mask id="mask-4" fill="white">
                            <use xlink:href="#path-3"></use>
                        </mask>
                        <use id="Mask" fill="#9B9B9B" fill-rule="nonzero" xlink:href="#path-3"></use>
                        <path d="M43.017931,64.248722 C46.886461,51.9334166 53.0029206,41.4073547 61.3673099,32.6705364 C69.7316991,23.933718 82.644225,15.6322362 100.104888,7.76609098 C102.30054,12.9748639 101.098159,19.85898 96.4977447,28.4184393 C87.5810838,45.0086408 69.8609059,60.7846734 50.7027136,67.6669792 C48.9468149,68.2977607 46.3852207,67.1583416 43.017931,64.248722 Z" fill-opacity="0.079908288" fill="#000000" fill-rule="nonzero" mask="url(#mask-4)"></path>
                    </g>
                    <circle id="Oval" fill="#FFFFFF" fill-rule="nonzero" cx="15.2729063" cy="15.0132369" r="9.5"></circle>
                    <circle id="Oval-Copy-5" fill="#FFFFFF" fill-rule="nonzero" cx="16.2945793" cy="61.3269086" r="9.5"></circle>
                    <circle id="Oval-Copy-4" fill="#FFFFFF" fill-rule="nonzero" cx="87.805276" cy="15.2484945" r="9.5"></circle>
                    <circle id="Oval-Copy-6" fill="#FFFFFF" fill-rule="nonzero" cx="88.826949" cy="61.5621661" r="9.5"></circle>
                </g>
            </g>
        </g>
    </g>
</svg>