<?xml version="1.0" encoding="UTF-8"?>
<svg width="173px" height="186px" viewBox="0 0 173 186" version="1.1" xmlns="http://www.w3.org/2000/svg" xmlns:xlink="http://www.w3.org/1999/xlink">
    <!-- Generator: Sketch 53.1 (72631) - https://sketchapp.com -->
    <title>secondry logo - symbol -Full Inverted</title>
    <desc>Created with Sketch.</desc>
    <defs>
        <path d="M148.021244,41.3762006 L88.3345903,100.358697 C82.880979,105.747969 74.1069609,105.747946 68.6533778,100.358645 L8.92742871,41.3367004 C3.50855444,37.1539593 5.68434189e-14,30.4711172 5.68434189e-14,22.9408794 C5.68434189e-14,10.2709816 9.9324655,2.20268248e-13 22.1847826,2.20268248e-13 C29.1424321,2.20268248e-13 35.3520003,3.31207827 39.4194743,8.49471156 L70.57532,40.7148331 C70.6640277,40.806571 70.7543251,40.8967583 70.8461711,40.9853541 C75.2186083,45.2030574 82.1822931,45.0776209 86.3999968,40.705184 C101.115777,25.4495292 111.540074,14.6737391 117.672886,8.37781379 C118.943158,6.78076225 120.418071,5.36433535 122.056158,4.17141338 C122.312781,3.96412281 122.583916,3.75010704 122.869565,3.52936606 C122.887983,3.54311582 122.907322,3.55601877 122.927573,3.56809666 C126.363702,1.30871303 130.441664,2.20268248e-13 134.815217,2.20268248e-13 C147.067535,2.20268248e-13 157,10.2709816 157,22.9408794 C157,30.4948662 153.46928,37.1961038 148.021244,41.3762006 Z M22.3258206,36.5173122 C30.6100919,36.5173122 37.3258206,29.8015834 37.3258206,21.5173122 C37.3258206,13.2330409 30.6100919,6.51731215 22.3258206,6.51731215 C14.0415494,6.51731215 7.32582062,13.2330409 7.32582062,21.5173122 C7.32582062,29.8015834 14.0415494,36.5173122 22.3258206,36.5173122 Z M134.6692,38.5085559 C142.953471,38.5085559 149.6692,31.7928271 149.6692,23.5085559 C149.6692,15.2242847 142.953471,8.5085559 134.6692,8.5085559 C126.384929,8.5085559 119.6692,15.2242847 119.6692,23.5085559 C119.6692,31.7928271 126.384929,38.5085559 134.6692,38.5085559 Z" id="path-1"></path>
        <path d="M148.021244,41.5121665 L90.463115,98.5781591 C83.8361822,105.14843 73.1517627,105.148402 66.5248643,98.5780965 L8.92742871,41.4725366 C3.50855444,37.2760506 5.68434189e-14,30.5712481 5.68434189e-14,23.0162652 C5.68434189e-14,10.3047329 9.9324655,-1.13686838e-13 22.1847826,-1.13686838e-13 C29.1424321,-1.13686838e-13 35.3520003,3.32296206 39.4194743,8.52262595 L70.5627803,40.8356151 C70.6596789,40.936153 70.7584831,41.0348368 70.859139,41.1316128 C75.2384801,45.3421444 82.2019478,45.2052972 86.4124823,40.8259589 C101.121674,25.5270434 111.541808,14.7201718 117.672886,8.40534405 C118.943158,6.80304445 120.418071,5.38196304 122.056158,4.18512102 C122.312781,3.97714928 122.583916,3.76243023 122.869565,3.54096388 C122.887983,3.55475882 122.907322,3.56770417 122.927573,3.57982175 C126.363702,1.3130136 130.441664,-1.13686838e-13 134.815217,-1.13686838e-13 C147.067535,-1.13686838e-13 157,10.3047329 157,23.0162652 C157,30.5950751 153.46928,37.3183336 148.021244,41.5121665 Z M22.7140492,37.4662009 C30.9983204,37.4662009 37.7140492,30.7504721 37.7140492,22.4662009 C37.7140492,14.1819296 30.9983204,7.46620089 22.7140492,7.46620089 C14.4297779,7.46620089 7.71404918,14.1819296 7.71404918,22.4662009 C7.71404918,30.7504721 14.4297779,37.4662009 22.7140492,37.4662009 Z M135.505717,37.2667739 C143.789988,37.2667739 150.505717,30.5510452 150.505717,22.2667739 C150.505717,13.9825027 143.789988,7.26677394 135.505717,7.26677394 C127.221445,7.26677394 120.505717,13.9825027 120.505717,22.2667739 C120.505717,30.5510452 127.221445,37.2667739 135.505717,37.2667739 Z" id="path-3"></path>
    </defs>
    <g id="Page-1" stroke="none" stroke-width="1" fill="none" fill-rule="evenodd">
        <g id="Logo-design---v-0.00000002" transform="translate(-1093.000000, -402.000000)">
            <g id="secondry-logo---symbol--Full-Inverted" transform="translate(1171.825998, 502.543513) rotate(15.000000) translate(-1171.825998, -502.543513) translate(1092.325998, 413.543513)">
                <g id="Path-2-Copy" transform="translate(0.865887, 0.854063)">
                    <mask id="mask-2" fill="white">
                        <use xlink:href="#path-1"></use>
                    </mask>
                    <use id="Combined-Shape" fill="#FFFFFF" fill-rule="nonzero" xlink:href="#path-1"></use>
                    <path d="M71.1394787,100.931728 C77.1529363,81.8583148 86.6607003,65.5560049 99.6627707,52.0247981 C112.664841,38.4935913 132.736787,25.636615 159.878609,13.453869 C163.291653,21.5209914 161.422605,32.1828131 154.271466,45.4393339 C140.410914,71.1335212 112.865687,95.566759 83.0851309,106.225777 C80.3556646,107.202704 76.3737806,105.438021 71.1394787,100.931728 Z" fill-opacity="0.079908288" fill="#000000" fill-rule="nonzero" mask="url(#mask-2)"></path>
                </g>
                <g id="Path-2" transform="translate(1.467146, 73.144651)">
                    <mask id="mask-4" fill="white">
                        <use xlink:href="#path-3"></use>
                    </mask>
                    <use id="Combined-Shape" fill="#FFFFFF" fill-rule="nonzero" xlink:href="#path-3"></use>
                    <path d="M66.8694571,99.8326296 C72.8829147,80.6965396 82.3906786,64.3406588 95.392749,50.7649873 C108.394819,37.1893157 128.466766,24.2900902 155.608588,12.0673106 C159.021631,20.1609423 157.152583,30.8577997 150.001445,44.1578827 C136.140893,69.9365034 108.595666,94.450031 78.8151093,105.144075 C76.085643,106.124213 72.1037589,104.353731 66.8694571,99.8326296 Z" fill-opacity="0.079908288" fill="#000000" fill-rule="nonzero" mask="url(#mask-4)"></path>
                </g>
            </g>
        </g>
    </g>
</svg>