<?xml version="1.0" encoding="UTF-8"?>
<svg width="699px" height="190px" viewBox="0 0 699 190" version="1.1" xmlns="http://www.w3.org/2000/svg" xmlns:xlink="http://www.w3.org/1999/xlink">
    <!-- Generator: Sketch 53.1 (72631) - https://sketchapp.com -->
    <title>Group 2</title>
    <desc>Created with Sketch.</desc>
    <defs>
        <path d="M65.996733,18.4176766 L44.8297478,39.3005748 C39.3780905,44.6790641 30.6165449,44.6790412 25.1649157,39.3005234 L3.98038223,18.4000941 C1.56432364,16.5382418 0,13.5635263 0,10.2116118 C0,4.57189434 4.4284878,0 9.89130435,0 C12.9934411,0 15.7620383,1.47429647 17.5755618,3.78122806 L27.0868249,13.6012322 C27.1699801,13.6870867 27.254529,13.7715801 27.3404381,13.8546789 C31.7070332,18.078431 38.6708855,17.962634 42.8946374,13.5960386 C47.193765,9.15151899 50.3840918,5.86257068 52.4656179,3.72919367 C53.0319812,3.01830242 53.6895858,2.38781214 54.4199433,1.85680999 C54.5343607,1.7645393 54.6552492,1.66927504 54.7826087,1.5710172 C54.7908205,1.57713759 54.799443,1.58288104 54.808472,1.58825723 C56.3405028,0.58254431 58.1587029,0 60.1086957,0 C65.5715122,0 70,4.57189434 70,10.2116118 C70,13.5740976 68.4257936,16.5570014 65.996733,18.4176766 Z" id="path-1"></path>
        <path d="M65.996733,18.4176766 L46.9366995,37.2219009 C40.31683,43.7529237 29.6778102,43.7528959 23.0579748,37.2218385 L3.98038223,18.4000941 C1.56432364,16.5382418 0,13.5635263 0,10.2116118 C0,4.57189434 4.4284878,2.84217094e-14 9.89130435,2.84217094e-14 C12.9934411,2.84217094e-14 15.7620383,1.47429647 17.5755618,3.78122806 L27.0868249,13.6012322 C27.1699801,13.6870867 27.254529,13.7715801 27.3404381,13.8546789 C31.7070332,18.078431 38.6708855,17.962634 42.8946374,13.5960386 C47.193765,9.15151899 50.3840918,5.86257068 52.4656179,3.72919367 C53.0319812,3.01830242 53.6895858,2.38781214 54.4199433,1.85680999 C54.5343607,1.7645393 54.6552492,1.66927504 54.7826087,1.5710172 C54.7908205,1.57713759 54.799443,1.58288104 54.808472,1.58825723 C56.3405028,0.58254431 58.1587029,2.84217094e-14 60.1086957,2.84217094e-14 C65.5715122,2.84217094e-14 70,4.57189434 70,10.2116118 C70,13.5740976 68.4257936,16.5570014 65.996733,18.4176766 Z" id="path-3"></path>
    </defs>
    <g id="Page-1" stroke="none" stroke-width="1" fill="none" fill-rule="evenodd">
        <g id="bg-texture" transform="translate(-902.000000, -816.000000)">
            <g id="Group-2" transform="translate(894.978443, 813.978443)">
                <path d="M51.3575571,91.3415571 L51.3575571,189.261557 L27.0215571,189.261557 L27.0215571,91.3415571 L51.3575571,91.3415571 Z M104.841557,117.261557 C122.553557,117.261557 134.649557,129.501557 134.649557,149.373557 L134.649557,189.261557 L111.177557,189.261557 L111.177557,153.117557 C111.177557,143.181557 106.137557,138.429557 98.5055573,138.429557 C94.1855573,138.429557 89.5775573,140.877557 85.5455573,145.485557 L85.5455573,189.261557 L62.2175573,189.261557 L62.2175573,119.421557 L85.5455573,119.421557 L85.5455573,124.173557 C91.1615573,119.709557 97.3535573,117.261557 104.841557,117.261557 Z M139.029557,165.213557 L159.765557,165.357557 C160.773557,171.405557 165.813557,174.141557 173.157557,174.141557 C179.349557,174.141557 183.093557,172.269557 183.093557,169.245557 C183.093557,166.941557 180.933557,165.069557 176.325557,164.349557 L162.213557,161.901557 C150.117557,159.885557 141.765557,153.117557 141.765557,140.877557 C141.765557,126.189557 154.293557,117.549557 172.869557,117.549557 C187.701557,117.549557 204.549557,123.309557 205.557557,141.741557 L184.821557,141.741557 C184.389557,136.413557 179.493557,133.965557 173.013557,133.965557 C166.965557,133.965557 164.229557,136.269557 164.229557,139.005557 C164.229557,141.309557 165.957557,143.469557 171.429557,144.477557 L184.533557,146.637557 C197.637557,149.085557 206.277557,155.421557 206.277557,167.805557 C206.277557,183.933557 191.733557,191.421557 173.589557,191.421557 C155.301557,191.421557 140.469557,183.789557 139.029557,165.213557 Z M266.529558,168.237557 L269.121558,187.965557 C260.049558,190.845557 254.865558,191.421557 247.953558,191.421557 C231.105558,191.421557 219.873558,179.037557 219.873558,160.173557 L219.873558,139.437557 L219.873558,119.421557 L219.873558,95.6615571 L243.201558,95.6615571 L243.201558,119.421557 L266.961558,119.421557 L266.961558,139.437557 L243.201558,139.437557 L243.201558,159.453557 C243.201558,166.509557 247.233558,169.965557 254.145558,169.965557 C257.457558,169.965557 261.345558,169.245557 266.529558,168.237557 Z M346.797558,119.421557 L346.797558,189.261557 L323.469558,189.261557 L323.469558,185.373557 C318.285558,188.685557 311.949558,190.701557 304.317558,190.701557 C285.453558,190.701557 269.613558,175.005557 269.613558,154.269557 C269.613558,133.389557 285.453558,117.837557 304.317558,117.837557 C311.949558,117.837557 318.285558,119.853557 323.469558,123.165557 L323.469558,119.421557 L346.797558,119.421557 Z M308.925558,171.549557 C314.109558,171.549557 319.149558,170.109557 323.469558,165.069557 L323.469558,143.469557 C319.149558,138.429557 314.109558,136.845557 308.925558,136.845557 C299.421558,136.845557 292.509558,144.621557 292.509558,154.269557 C292.509558,163.917557 299.421558,171.549557 308.925558,171.549557 Z M380.265558,87.0215571 L380.265558,189.261557 L356.937558,189.261557 L356.937558,87.0215571 L380.265558,87.0215571 Z M413.877558,87.0215571 L413.877558,189.261557 L390.549558,189.261557 L390.549558,87.0215571 L413.877558,87.0215571 Z M493.425558,152.829557 C493.425558,155.421557 493.425558,158.157557 492.993558,160.749557 L493.137558,161.181557 L443.313558,161.181557 C445.185558,167.517557 450.081558,172.413557 459.009558,172.413557 C463.905558,172.413557 467.649558,170.541557 469.665558,167.373557 L492.705558,167.373557 C489.393558,181.773557 476.001558,190.845557 458.721558,190.845557 C435.825558,190.845557 420.561558,175.581557 420.561558,154.269557 C420.561558,133.101557 435.393558,117.837557 457.713558,117.837557 C478.017558,117.837557 493.425558,131.805557 493.425558,152.829557 Z M457.713558,135.837557 C449.793558,135.837557 444.753558,140.445557 443.025558,147.501557 L471.537558,147.501557 C470.241558,139.869557 465.201558,135.837557 457.713558,135.837557 Z M546.621559,118.269557 L546.621559,140.445557 C535.245559,140.877557 528.045559,143.901557 522.573559,149.373557 L522.573559,189.261557 L499.245559,189.261557 L499.245559,119.421557 L522.573559,119.421557 L522.573559,126.909557 C528.765559,121.581557 536.253559,118.269557 546.621559,118.269557 Z M554.025559,191.853557 C546.825559,191.853557 540.921559,186.381557 540.921559,179.181557 C540.921559,172.125557 546.825559,166.653557 554.025559,166.653557 C561.225559,166.653557 567.129559,172.125557 567.129559,179.181557 C567.129559,186.381557 561.225559,191.853557 554.025559,191.853557 Z M626.517559,168.237557 L629.109559,187.965557 C620.037559,190.845557 614.853559,191.421557 607.941559,191.421557 C591.093559,191.421557 579.861559,179.037557 579.861559,160.173557 L579.861559,139.437557 L566.181559,139.437557 L566.181559,119.421557 L579.861559,119.421557 L579.861559,95.6615571 L603.189559,95.6615571 L603.189559,119.421557 L626.949559,119.421557 L626.949559,139.437557 L603.189559,139.437557 L603.189559,159.453557 C603.189559,166.509557 607.221559,169.965557 614.133559,169.965557 C617.445559,169.965557 621.333559,169.245557 626.517559,168.237557 Z M667.473559,117.837557 C689.505559,117.837557 705.345559,133.245557 705.345559,154.269557 C705.345559,175.581557 689.505559,191.421557 667.473559,191.421557 C645.441559,191.421557 629.601559,175.581557 629.601559,154.269557 C629.601559,133.245557 645.441559,117.837557 667.473559,117.837557 Z M667.617559,171.261557 C676.977559,171.261557 683.313559,163.773557 683.313559,154.413557 C683.313559,145.341557 676.977559,137.997557 667.617559,137.997557 C658.113559,137.997557 651.777559,145.341557 651.777559,154.413557 C651.777559,163.773557 658.113559,171.261557 667.617559,171.261557 Z" id="Installer.to-Copy" fill="#000000" fill-rule="nonzero"></path>
                <g id="logo-symbol-copy-3" transform="translate(43.500000, 43.500000) rotate(15.000000) translate(-43.500000, -43.500000) translate(8.000000, 8.000000)">
                    <g id="Path-2-Copy" transform="translate(0.092643, 0.690516)">
                        <mask id="mask-2" fill="white">
                            <use xlink:href="#path-1"></use>
                        </mask>
                        <use id="Mask" fill="#007EE1" fill-rule="nonzero" xlink:href="#path-1"></use>
                        <path d="M31.4130435,41.2953093 C34.0942029,32.8052124 38.3333333,25.5486091 44.1304348,19.5254995 C49.9275362,13.5023899 58.8768116,7.77939868 70.9782609,2.3565258 C72.5,5.94742227 71.6666667,10.6932902 68.4782609,16.5941296 C62.2983969,28.0313139 50.0170855,38.9072152 36.7391304,43.6518351 C35.5221709,44.086692 33.7468086,43.3011834 31.4130435,41.2953093 Z" fill-opacity="0.079908288" fill="#000000" fill-rule="nonzero" mask="url(#mask-2)"></path>
                    </g>
                    <g id="Path-2" transform="translate(0.129808, 31.738843)">
                        <mask id="mask-4" fill="white">
                            <use xlink:href="#path-3"></use>
                        </mask>
                        <use id="Mask" fill="#9B9B9B" fill-rule="nonzero" xlink:href="#path-3"></use>
                        <path d="M31.6304348,41.9686024 C34.3115942,33.4785055 38.5507246,26.2219022 44.3478261,20.1987926 C50.1449275,14.175683 59.0942029,8.45269177 71.1956522,3.02981889 C72.7173913,6.62071535 71.884058,11.3665833 68.6956522,17.2674227 C62.5157882,28.704607 50.2344768,39.5805083 36.9565217,44.3251282 C35.7395622,44.7599851 33.9641999,43.9744765 31.6304348,41.9686024 Z" fill-opacity="0.079908288" fill="#000000" fill-rule="nonzero" mask="url(#mask-4)"></path>
                    </g>
                    <circle id="Oval" fill="#FFFFFF" fill-rule="nonzero" cx="9.45601523" cy="9.84904283" r="6.5"></circle>
                    <circle id="Oval-Copy-5" fill="#FFFFFF" fill-rule="nonzero" cx="9.75199902" cy="41.8632958" r="6.5"></circle>
                    <circle id="Oval-Copy-4" fill="#FFFFFF" fill-rule="nonzero" cx="60.4098473" cy="10.6898712" r="6.5"></circle>
                    <circle id="Oval-Copy-6" fill="#FFFFFF" fill-rule="nonzero" cx="60.4470121" cy="41.7381983" r="6.5"></circle>
                </g>
            </g>
        </g>
    </g>
</svg>