<?xml version="1.0" standalone="no"?>
<!DOCTYPE svg PUBLIC "-//W3C//DTD SVG 20010904//EN"
 "http://www.w3.org/TR/2001/REC-SVG-20010904/DTD/svg10.dtd">
<svg version="1.0" xmlns="http://www.w3.org/2000/svg"
 width="944.000000pt" height="944.000000pt" viewBox="0 0 944.000000 944.000000"
 preserveAspectRatio="xMidYMid meet">
<metadata>
Created by potrace 1.11, written by Peter Selinger 2001-2013
</metadata>
<g transform="translate(0.000000,944.000000) scale(0.100000,-0.100000)"
fill="#000000" stroke="none">
<path d="M2228 9399 c-104 -18 -177 -39 -245 -70 -24 -10 -49 -19 -57 -19 -8
0 -16 -4 -18 -8 -1 -4 -34 -25 -71 -46 -70 -39 -148 -98 -225 -170 -47 -44
-152 -169 -152 -180 0 -4 -5 -12 -10 -19 -22 -26 -57 -84 -79 -132 -13 -27
-30 -64 -38 -82 -8 -17 -16 -37 -17 -45 -2 -7 -6 -20 -9 -28 -15 -37 -48 -181
-55 -240 -8 -79 -7 -257 3 -325 7 -55 41 -190 50 -205 3 -6 8 -20 10 -32 6
-29 96 -212 106 -216 5 -2 9 -7 9 -12 0 -4 18 -34 39 -66 21 -33 71 -115 111
-184 40 -69 81 -141 92 -160 12 -19 32 -55 46 -80 14 -25 36 -61 49 -80 12
-19 23 -38 23 -43 0 -5 13 -28 30 -52 16 -24 30 -46 30 -49 0 -3 18 -35 40
-71 22 -36 40 -70 40 -75 0 -6 5 -10 10 -10 6 0 10 -4 10 -9 0 -5 23 -49 51
-98 28 -48 59 -101 69 -118 9 -16 31 -53 48 -81 18 -28 32 -56 32 -63 0 -6 5
-11 10 -11 6 0 10 -4 10 -9 0 -5 25 -50 55 -100 30 -51 55 -94 55 -97 0 -2 12
-23 27 -47 14 -23 40 -67 56 -97 16 -30 35 -62 41 -70 11 -15 15 -23 58 -99
11 -20 40 -69 64 -108 24 -40 44 -77 44 -83 0 -5 4 -10 8 -10 4 0 13 -12 19
-27 12 -29 54 -104 63 -113 7 -7 29 -43 37 -60 4 -8 33 -59 65 -113 32 -55 58
-103 58 -107 0 -5 6 -15 13 -22 16 -17 137 -227 137 -238 0 -5 4 -10 8 -12 5
-1 22 -28 39 -58 63 -115 87 -156 110 -190 12 -19 23 -40 23 -47 0 -7 4 -13
10 -13 5 0 12 -11 16 -25 3 -14 10 -25 15 -25 5 0 9 -4 9 -9 0 -9 54 -103 181
-319 27 -45 49 -87 49 -92 0 -6 5 -10 10 -10 6 0 10 -4 10 -10 0 -10 63 -109
95 -150 21 -27 173 -178 196 -195 141 -107 367 -206 504 -220 16 -2 30 -4 30
-5 0 -7 258 -6 300 1 28 5 68 11 90 15 49 8 202 60 232 80 12 8 29 14 38 14 8
0 15 3 15 8 0 4 20 16 45 27 25 11 45 22 45 26 0 4 8 9 18 12 9 3 40 19 67 35
52 30 77 45 264 152 141 81 173 99 236 135 59 33 113 65 140 83 11 6 29 16 40
21 12 5 62 34 113 65 51 31 96 56 100 57 4 1 24 13 44 25 21 13 42 24 48 24 5
0 10 5 10 10 0 6 6 10 14 10 8 0 21 7 30 15 8 9 19 16 23 16 4 1 34 16 66 35
32 19 62 34 68 34 5 0 9 5 9 10 0 6 6 10 13 10 7 0 29 11 48 25 20 13 39 21
43 18 3 -4 6 -2 6 4 0 6 24 23 53 38 28 15 61 32 72 38 11 7 52 30 90 52 39
21 72 41 75 45 3 3 23 14 45 25 22 11 42 23 45 26 3 3 10 8 15 10 29 12 290
164 293 171 2 4 12 8 23 8 10 0 19 3 19 8 0 4 28 22 63 41 34 18 91 50 127 71
36 22 74 44 85 49 11 6 43 24 70 40 28 16 73 42 100 56 28 15 58 35 69 44 10
9 21 15 25 15 3 -1 42 19 86 45 44 26 132 76 195 112 63 35 121 69 128 76 7 7
17 13 22 13 9 0 118 64 138 80 6 6 12 8 12 5 0 -4 12 2 28 13 15 11 68 40 119
65 180 91 306 189 417 327 86 107 198 309 209 376 1 11 5 24 9 29 8 14 37 136
45 187 8 56 7 319 -1 382 -4 27 -12 58 -17 68 -6 11 -8 22 -6 25 3 2 -6 35
-20 71 -13 37 -28 78 -33 92 -24 71 -135 260 -153 260 -6 0 -8 3 -4 6 17 18
-190 211 -293 273 -50 30 -201 102 -224 107 -10 2 -35 9 -55 16 -20 7 -38 13
-41 13 -3 1 -21 4 -40 8 -88 17 -121 20 -215 20 -96 0 -161 -5 -215 -17 -14
-3 -36 -8 -49 -11 -121 -24 -243 -81 -433 -202 -81 -51 -149 -93 -152 -93 -3
0 -25 -13 -49 -30 -25 -16 -48 -30 -52 -30 -3 0 -25 -13 -48 -29 -23 -16 -58
-38 -77 -48 -107 -61 -596 -359 -598 -365 -2 -5 -8 -8 -13 -8 -5 0 -38 -18
-73 -40 -35 -22 -68 -40 -74 -40 -6 0 -12 -3 -14 -8 -2 -6 -242 -153 -387
-238 -20 -12 -58 -35 -86 -52 -94 -59 -231 -122 -311 -143 -75 -20 -304 -35
-328 -21 -5 3 -25 6 -45 8 -20 2 -63 13 -96 24 -33 11 -69 23 -79 25 -45 10
-193 105 -259 166 -89 82 -184 210 -227 307 -5 12 -39 74 -75 137 -36 63 -65
117 -65 119 0 3 -13 27 -28 53 -34 58 -100 177 -121 218 -8 17 -21 36 -28 43
-7 7 -13 18 -13 23 0 6 -17 41 -39 77 -21 37 -55 99 -76 137 -53 96 -87 159
-130 235 -19 36 -43 81 -53 100 -9 19 -19 37 -22 40 -3 3 -15 24 -28 46 -26
49 -46 85 -170 313 -52 94 -99 184 -105 201 -6 16 -15 30 -19 30 -4 0 -8 7 -8
15 0 8 -4 15 -10 15 -5 0 -10 6 -10 13 0 16 -86 129 -146 193 -60 62 -173 154
-191 154 -7 0 -13 4 -13 9 0 10 -174 99 -205 105 -11 3 -36 11 -55 19 -19 8
-53 18 -75 22 -47 8 -70 13 -70 15 0 4 -79 10 -170 13 -64 2 -135 -3 -197 -14z"/>
<path d="M1418 5815 c-2 -2 -22 -5 -46 -9 -56 -7 -211 -43 -237 -55 -124 -54
-240 -117 -273 -148 -7 -7 -16 -13 -20 -13 -4 0 -23 -14 -42 -31 -19 -17 -44
-39 -55 -48 -11 -9 -34 -33 -52 -53 -17 -20 -33 -34 -36 -32 -3 3 -8 -4 -12
-15 -3 -12 -11 -21 -16 -21 -5 0 -9 -7 -9 -15 0 -8 -4 -15 -9 -15 -5 0 -19
-16 -31 -35 -12 -20 -27 -41 -33 -48 -15 -15 -107 -196 -111 -217 -2 -8 -6
-24 -10 -35 -21 -55 -27 -75 -41 -139 -9 -38 -19 -88 -21 -110 -9 -68 -11
-259 -3 -296 5 -20 9 -52 11 -73 1 -21 6 -41 10 -43 5 -3 6 -9 3 -14 -4 -7 32
-133 52 -180 3 -8 7 -17 7 -20 5 -20 85 -164 112 -201 19 -26 34 -50 34 -55 0
-4 6 -15 14 -23 7 -9 25 -36 38 -61 14 -25 45 -79 70 -120 24 -41 47 -82 51
-90 4 -8 13 -24 20 -35 44 -72 94 -158 120 -205 17 -30 38 -67 49 -82 10 -14
18 -31 18 -37 0 -6 5 -11 10 -11 6 0 10 -4 10 -9 0 -5 23 -49 52 -98 28 -48
58 -99 65 -113 25 -42 56 -96 101 -171 23 -39 42 -76 42 -80 0 -5 5 -9 10 -9
6 0 10 -4 10 -10 0 -5 14 -33 31 -62 18 -29 43 -73 57 -98 13 -25 31 -52 38
-61 8 -8 14 -19 14 -24 0 -7 41 -77 127 -220 7 -11 15 -27 19 -35 4 -8 19 -33
33 -55 14 -22 26 -42 26 -45 1 -7 58 -104 65 -110 3 -3 18 -30 34 -60 17 -30
45 -78 63 -107 18 -29 33 -54 33 -57 0 -6 72 -129 80 -136 3 -3 13 -21 24 -40
37 -68 70 -126 123 -213 29 -49 53 -90 53 -92 0 -2 28 -50 61 -107 63 -105 82
-138 127 -218 14 -25 36 -61 49 -80 12 -19 23 -40 23 -47 0 -7 5 -13 10 -13 6
0 10 -4 10 -9 0 -13 77 -141 138 -231 156 -229 372 -399 632 -499 46 -18 91
-35 100 -37 8 -2 42 -10 76 -18 33 -8 83 -18 110 -22 27 -3 58 -8 69 -10 41
-9 291 -3 310 7 6 3 26 6 45 8 19 1 53 7 75 13 22 5 47 11 55 13 27 5 144 47
172 62 16 7 28 10 28 6 0 -5 4 -3 8 2 4 6 45 30 92 53 47 24 128 69 180 99
153 89 163 95 210 121 25 14 101 57 170 97 69 40 146 84 171 97 76 42 94 53
99 58 3 3 19 12 35 20 17 8 32 17 35 20 3 3 24 14 47 25 24 11 43 23 43 28 0
4 4 7 9 7 6 0 38 17 73 37 35 21 80 47 100 58 35 19 226 128 313 179 22 12 67
38 100 56 33 18 65 36 70 40 9 7 49 30 110 64 11 6 102 59 202 116 101 58 200
113 220 124 21 10 40 21 43 25 3 4 30 20 60 35 30 16 57 31 60 35 5 6 37 24
125 70 28 14 52 28 55 31 9 9 45 30 70 41 13 5 27 13 30 17 3 4 25 17 49 30
72 37 105 56 119 69 7 7 17 13 22 13 5 0 43 20 84 45 42 25 81 45 86 45 6 0
10 5 10 10 0 6 4 10 9 10 9 0 173 90 181 100 5 6 129 66 142 69 12 2 161 105
192 132 51 44 123 117 159 161 40 51 107 145 107 153 0 3 11 22 24 43 12 20
24 40 24 45 1 4 8 20 15 35 32 62 71 191 82 267 2 11 4 20 5 20 14 0 20 320 9
382 -6 26 -12 64 -15 83 -14 85 -121 350 -154 380 -11 10 -50 69 -50 76 0 4
-11 17 -26 30 -14 13 -22 24 -19 24 3 0 -28 33 -70 74 -72 70 -201 168 -242
183 -10 3 -21 11 -24 15 -3 5 -12 10 -20 12 -8 1 -34 12 -59 23 -46 21 -161
57 -215 68 -16 3 -41 8 -55 11 -85 19 -350 6 -420 -20 -8 -3 -26 -7 -40 -10
-25 -4 -80 -23 -135 -47 -16 -7 -32 -13 -35 -14 -16 -4 -105 -54 -165 -93 -38
-24 -86 -55 -105 -67 -43 -28 -487 -294 -515 -309 -11 -6 -35 -21 -53 -34 -17
-13 -32 -20 -32 -15 0 4 -4 3 -8 -2 -7 -11 -76 -56 -102 -68 -8 -4 -33 -19
-55 -32 -22 -14 -48 -28 -57 -32 -10 -3 -18 -10 -18 -15 0 -5 -4 -7 -9 -4 -5
3 -12 -1 -15 -10 -4 -9 -9 -14 -13 -10 -3 3 -13 0 -22 -7 -25 -21 -221 -137
-231 -137 -6 0 -10 -4 -10 -9 0 -5 -8 -11 -17 -15 -10 -3 -46 -23 -80 -45 -34
-21 -81 -50 -105 -63 -24 -12 -45 -25 -48 -28 -14 -15 -303 -183 -355 -206
-63 -28 -130 -49 -180 -58 -16 -3 -41 -8 -55 -11 -31 -7 -207 -8 -236 -1 -12
2 -37 7 -56 10 -20 3 -46 10 -59 15 -13 5 -28 9 -34 10 -35 6 -62 15 -75 27
-8 7 -19 13 -25 14 -51 10 -166 86 -250 164 -32 31 -55 56 -51 56 5 0 -3 9
-18 21 -14 11 -26 27 -26 35 0 8 -3 14 -8 14 -10 0 -74 108 -156 265 -12 22
-23 42 -26 45 -6 6 -18 27 -71 127 -40 76 -83 153 -121 221 -10 17 -27 49 -39
70 -12 20 -26 43 -31 50 -6 6 -7 12 -2 12 5 0 5 4 -1 8 -9 6 -34 49 -74 127
-9 17 -19 32 -24 33 -4 2 -5 7 -2 12 3 4 -2 13 -10 20 -8 7 -15 18 -15 25 0 8
-3 15 -7 17 -5 2 -20 28 -36 58 -15 30 -38 73 -50 95 -13 22 -39 69 -58 105
-19 36 -36 67 -40 70 -3 3 -13 21 -22 40 -10 19 -28 53 -40 75 -13 22 -40 71
-60 108 -21 37 -47 84 -59 105 -11 20 -39 71 -61 112 -94 177 -113 208 -160
270 -58 74 -131 149 -197 200 -25 19 -47 38 -48 42 -2 5 -8 6 -13 2 -5 -3 -9
-1 -9 4 0 5 -13 15 -30 22 -16 7 -30 15 -30 19 0 5 -41 26 -70 35 -3 1 -25 11
-50 23 -40 18 -71 30 -105 40 -46 13 -136 34 -165 39 -38 6 -257 14 -262 9z"/>
</g>
</svg>
